<?xml version="1.0" encoding="utf-8"?>
<svg version="1.1" xmlns:xlink="http://www.w3.org/1999/xlink" width="25px" height="25px" xmlns="http://www.w3.org/2000/svg">
  <g transform="matrix(1 0 0 1 -1295 -106 )">
    <path d="M 10.9675480769231 14.3110795454545  C 11.348157051282 14.7608901515151  11.5384615384614 15.2935606060606  11.5384615384614 15.9090909090909  L 11.5384615384614 22.7272727272727  C 11.5384615384614 23.342803030303  11.348157051282 23.8754734848485  10.9675480769231 24.3252840909091  C 10.586939102564 24.7750946969697  10.136217948718 25  9.61538461538453 25  L 1.92307692307691 25  C 1.40224358974365 25  0.951522435897459 24.7750946969697  0.570913461538566 24.3252840909091  C 0.190304487179446 23.8754734848485  0 23.342803030303  0 22.7272727272727  L 0 15.9090909090909  C 0 15.2935606060606  0.190304487179446 14.7608901515151  0.570913461538566 14.3110795454545  C 0.951522435897459 13.8612689393939  1.40224358974365 13.6363636363636  1.92307692307691 13.6363636363636  L 9.61538461538453 13.6363636363636  C 10.136217948718 13.6363636363636  10.586939102564 13.8612689393939  10.9675480769231 14.3110795454545  Z M 10.9675480769231 0.674715909090907  C 11.348157051282 1.12452651515152  11.5384615384614 1.65719696969698  11.5384615384614 2.27272727272728  L 11.5384615384614 9.09090909090909  C 11.5384615384614 9.70643939393939  11.348157051282 10.2391098484849  10.9675480769231 10.6889204545455  C 10.586939102564 11.1387310606061  10.136217948718 11.3636363636364  9.61538461538453 11.3636363636364  L 1.92307692307691 11.3636363636364  C 1.40224358974365 11.3636363636364  0.951522435897459 11.1387310606061  0.570913461538566 10.6889204545455  C 0.190304487179446 10.2391098484849  0 9.70643939393939  0 9.09090909090909  L 0 2.27272727272728  C 0 1.65719696969698  0.190304487179446 1.12452651515152  0.570913461538566 0.674715909090907  C 0.951522435897459 0.224905303030297  1.40224358974365 0  1.92307692307691 0  L 9.61538461538453 0  C 10.136217948718 0  10.586939102564 0.224905303030297  10.9675480769231 0.674715909090907  Z M 24.4290865384614 14.3110795454545  C 24.8096955128206 14.7608901515151  25 15.2935606060606  25 15.9090909090909  L 25 22.7272727272727  C 25 23.342803030303  24.8096955128206 23.8754734848485  24.4290865384614 24.3252840909091  C 24.0484775641025 24.7750946969697  23.5977564102564 25  23.0769230769231 25  L 15.3846153846155 25  C 14.863782051282 25  14.413060897436 24.7750946969697  14.0324519230769 24.3252840909091  C 13.651842948718 23.8754734848485  13.4615384615386 23.342803030303  13.4615384615386 22.7272727272727  L 13.4615384615386 15.9090909090909  C 13.4615384615386 15.2935606060606  13.651842948718 14.7608901515151  14.0324519230769 14.3110795454545  C 14.413060897436 13.8612689393939  14.863782051282 13.6363636363636  15.3846153846155 13.6363636363636  L 23.0769230769231 13.6363636363636  C 23.5977564102564 13.6363636363636  24.0484775641025 13.8612689393939  24.4290865384614 14.3110795454545  Z M 24.4290865384614 0.674715909090907  C 24.8096955128206 1.12452651515152  25 1.65719696969698  25 2.27272727272728  L 25 9.09090909090909  C 25 9.70643939393939  24.8096955128206 10.2391098484849  24.4290865384614 10.6889204545455  C 24.0484775641025 11.1387310606061  23.5977564102564 11.3636363636364  23.0769230769231 11.3636363636364  L 15.3846153846155 11.3636363636364  C 14.863782051282 11.3636363636364  14.413060897436 11.1387310606061  14.0324519230769 10.6889204545455  C 13.651842948718 10.2391098484849  13.4615384615386 9.70643939393939  13.4615384615386 9.09090909090909  L 13.4615384615386 2.27272727272728  C 13.4615384615386 1.65719696969698  13.651842948718 1.12452651515152  14.0324519230769 0.674715909090907  C 14.413060897436 0.224905303030297  14.863782051282 0  15.3846153846155 0  L 23.0769230769231 0  C 23.5977564102564 0  24.0484775641025 0.224905303030297  24.4290865384614 0.674715909090907  Z " fill-rule="nonzero" fill="#ffffff" stroke="none" transform="matrix(1 0 0 1 1295 106 )" />
  </g>
</svg>