<?xml version="1.0" encoding="utf-8"?>
<svg version="1.1" xmlns:xlink="http://www.w3.org/1999/xlink" width="14px" height="14px" xmlns="http://www.w3.org/2000/svg">
  <g transform="matrix(1 0 0 1 -317 -470 )">
    <path d="M 324 470.5  C 327.64 470.5  330.5 473.36  330.5 477  C 330.5 480.64  327.64 483.5  324 483.5  C 320.36 483.5  317.5 480.64  317.5 477  C 317.5 473.36  320.36 470.5  324 470.5  Z " fill-rule="nonzero" fill="#ffffff" stroke="none" fill-opacity="0" />
    <path d="M 324 470.5  C 327.64 470.5  330.5 473.36  330.5 477  C 330.5 480.64  327.64 483.5  324 483.5  C 320.36 483.5  317.5 480.64  317.5 477  C 317.5 473.36  320.36 470.5  324 470.5  Z " stroke-width="1" stroke="#d8000f" fill="none" stroke-opacity="0.898039215686275" />
  </g>
</svg>