<?xml version="1.0" encoding="utf-8"?>
<svg version="1.1" xmlns:xlink="http://www.w3.org/1999/xlink" width="756px" height="32px" xmlns="http://www.w3.org/2000/svg">
  <g transform="matrix(1 0 0 1 -22 -842 )">
    <path d="M 23 846  A 3 3 0 0 1 26 843 L 774 843  A 3 3 0 0 1 777 846 L 777 870  A 3 3 0 0 1 774 873 L 26 873  A 3 3 0 0 1 23 870 L 23 846  Z " fill-rule="nonzero" fill="#ffffff" stroke="none" />
    <path d="M 22.5 846  A 3.5 3.5 0 0 1 26 842.5 L 774 842.5  A 3.5 3.5 0 0 1 777.5 846 L 777.5 870  A 3.5 3.5 0 0 1 774 873.5 L 26 873.5  A 3.5 3.5 0 0 1 22.5 870 L 22.5 846  Z " stroke-width="1" stroke-dasharray="9,4" stroke="#d9d9d9" fill="none" stroke-dashoffset="0.5" />
  </g>
</svg>