<?xml version="1.0" encoding="utf-8"?>
<svg version="1.1" xmlns:xlink="http://www.w3.org/1999/xlink" width="265px" height="32px" xmlns="http://www.w3.org/2000/svg">
  <g transform="matrix(1 0 0 1 -867 -923 )">
    <path d="M 868 927  A 3 3 0 0 1 871 924 L 1128 924  A 3 3 0 0 1 1131 927 L 1131 951  A 3 3 0 0 1 1128 954 L 871 954  A 3 3 0 0 1 868 951 L 868 927  Z " fill-rule="nonzero" fill="#ffffff" stroke="none" />
    <path d="M 867.5 927  A 3.5 3.5 0 0 1 871 923.5 L 1128 923.5  A 3.5 3.5 0 0 1 1131.5 927 L 1131.5 951  A 3.5 3.5 0 0 1 1128 954.5 L 871 954.5  A 3.5 3.5 0 0 1 867.5 951 L 867.5 927  Z " stroke-width="1" stroke="#d8000f" fill="none" stroke-opacity="0.898039215686275" />
  </g>
</svg>